<?xml version="1.0" standalone="no"?>
<!DOCTYPE svg PUBLIC "-//W3C//DTD SVG 20010904//EN"
 "http://www.w3.org/TR/2001/REC-SVG-20010904/DTD/svg10.dtd">
<svg version="1.0" xmlns="http://www.w3.org/2000/svg"
 width="300.000000pt" height="300.000000pt" viewBox="0 0 300.000000 300.000000"
 preserveAspectRatio="xMidYMid meet">
<metadata>
Created by potrace 1.14, written by Peter Selinger 2001-2017
</metadata>
<g transform="translate(0.000000,300.000000) scale(0.100000,-0.100000)"
fill="#000000" stroke="none">
<path d="M1339 2996 c-2 -2 -24 -7 -49 -10 -104 -14 -110 -17 -110 -43 0 -28
-5 -28 140 -5 72 11 317 4 410 -11 244 -41 488 -149 670 -296 84 -68 81 -62
52 -122 -36 -72 -37 -174 -3 -234 53 -93 126 -138 226 -139 33 -1 74 2 90 7
30 7 30 7 67 -80 80 -194 111 -352 111 -568 0 -239 -45 -428 -153 -642 -268
-536 -846 -853 -1440 -790 -192 20 -406 87 -549 171 -52 30 -62 33 -78 21 -17
-13 -17 -14 1 -34 28 -31 206 -114 320 -151 164 -52 286 -68 481 -65 253 4
428 46 650 156 186 92 397 266 518 428 156 209 268 481 297 721 9 75 6 357 -4
418 -21 123 -72 292 -117 390 l-30 64 27 26 c83 83 99 241 32 328 -57 75 -117
106 -209 112 -57 4 -75 0 -118 -21 -40 -20 -53 -23 -64 -14 -135 125 -329 240
-520 306 -155 54 -272 73 -468 77 -97 2 -178 2 -180 0z m1435 -421 c47 -22 91
-76 104 -127 51 -202 -183 -344 -336 -204 -60 54 -81 152 -49 226 46 109 173
156 281 105z"/>
<path d="M815 2837 c-87 -47 -187 -110 -204 -131 -8 -9 -7 -17 2 -30 11 -15
19 -12 87 30 41 25 110 65 153 87 81 41 101 62 76 78 -21 13 -28 11 -114 -34z"/>
<path d="M1369 2606 c-2 -2 -22 -6 -44 -9 -77 -11 -221 -58 -314 -103 -296
-141 -511 -410 -589 -734 -25 -103 -31 -146 -32 -228 0 -50 -3 -64 -18 -69
-60 -21 -121 -103 -122 -163 0 -105 66 -178 178 -194 19 -2 35 -6 35 -8 119
-245 211 -363 382 -491 106 -79 255 -149 387 -182 150 -37 220 -36 199 3 -6
12 -33 21 -90 30 -288 45 -553 215 -716 457 -49 73 -105 182 -105 204 0 4 11
14 25 21 52 28 83 112 70 190 -9 56 -65 117 -123 133 l-47 14 1 54 c4 231 87
453 238 634 91 110 169 178 281 243 318 186 713 195 1025 25 203 -110 374
-290 465 -487 154 -331 129 -687 -71 -1023 -21 -36 -10 -60 22 -49 39 12 124
192 169 356 33 119 42 340 19 459 -70 364 -295 659 -619 812 -79 37 -211 80
-290 94 -43 7 -310 16 -316 11z m-872 -1203 c74 -35 90 -142 31 -202 -54 -55
-128 -53 -185 4 -27 27 -33 41 -33 74 0 54 22 97 63 121 39 24 78 25 124 3z"/>
<path d="M239 2307 c-42 -32 -152 -272 -189 -414 -41 -154 -48 -216 -48 -393
0 -253 50 -466 159 -682 73 -145 250 -376 281 -366 28 10 17 40 -42 110 -167
198 -281 439 -326 688 -26 140 -25 363 2 515 25 148 111 369 196 504 11 18 6
51 -9 51 -4 0 -15 -6 -24 -13z"/>
<path d="M1459 2214 c-26 -43 -73 -74 -113 -74 -15 0 -49 12 -75 27 -27 14
-55 24 -63 20 -9 -3 -19 -22 -23 -43 -14 -77 -60 -126 -110 -118 -58 9 -106
11 -110 5 -2 -5 -1 -30 3 -57 15 -94 -19 -144 -108 -160 -59 -11 -62 -19 -29
-82 16 -31 29 -68 29 -82 0 -36 -32 -84 -74 -109 -45 -28 -46 -53 -1 -80 41
-24 75 -75 75 -112 0 -14 -11 -47 -25 -73 -34 -63 -33 -86 3 -86 39 -1 108
-35 122 -61 12 -22 15 -74 6 -117 -9 -41 2 -51 47 -44 108 15 138 -1 165 -90
11 -34 25 -64 32 -66 6 -2 33 8 60 22 81 44 142 28 190 -49 24 -38 42 -44 62
-19 7 9 29 34 49 55 45 48 88 52 160 13 53 -29 79 -27 79 8 0 13 9 42 20 66
22 50 64 72 119 65 84 -11 86 -11 84 22 -10 145 0 163 107 190 53 13 61 32 30
75 -49 69 -32 149 45 201 48 33 46 47 -13 88 -66 46 -77 105 -36 182 15 26 24
54 21 62 -3 8 -23 18 -45 22 -90 15 -127 66 -110 152 11 60 3 74 -36 67 -48
-9 -103 -6 -125 6 -23 12 -51 59 -57 99 -10 60 -25 65 -89 26 -24 -15 -55 -25
-78 -25 -32 0 -45 7 -82 46 -25 25 -45 50 -45 55 0 24 -40 6 -61 -27z m73 -75
c55 -57 128 -70 197 -35 l30 16 24 -54 c32 -69 65 -91 134 -91 52 0 53 -1 54
-30 3 -71 18 -112 51 -140 16 -14 33 -25 38 -25 5 0 20 -4 34 -10 24 -9 24
-10 10 -40 -35 -70 -17 -156 43 -206 l26 -20 -33 -34 c-61 -62 -72 -128 -35
-201 14 -26 14 -27 -30 -44 -63 -24 -93 -63 -101 -134 l-6 -58 -56 -6 c-31 -3
-67 -14 -81 -25 -24 -17 -53 -64 -65 -105 -5 -16 -8 -16 -33 -3 -74 38 -153
24 -206 -36 l-28 -32 -22 25 c-52 60 -112 78 -179 54 -59 -20 -65 -19 -73 15
-7 34 -56 87 -92 101 -13 5 -43 9 -66 9 l-42 0 -1 55 c-2 81 -34 119 -127 149
-16 5 -16 8 -3 35 36 68 25 138 -30 195 l-37 38 28 25 c59 55 75 136 39 204
-14 29 -14 30 13 39 91 32 116 73 122 196 1 6 14 9 30 6 36 -5 91 12 120 37
11 10 30 39 41 65 l21 46 32 -17 c52 -26 119 -22 168 12 23 16 43 35 46 42 7
19 12 17 45 -18z"/>
<path d="M1465 1922 c-95 -9 -198 -57 -261 -120 -157 -157 -165 -418 -18 -582
157 -175 428 -187 601 -27 90 83 134 193 130 325 -3 74 -8 98 -35 156 -43 92
-135 182 -218 214 -62 24 -149 39 -199 34z"/>
<path d="M2224 731 c-21 -16 -48 -37 -59 -48 -38 -37 -141 -100 -220 -137
-123 -57 -130 -61 -130 -76 0 -46 138 5 298 110 131 85 181 133 167 161 -6 10
-12 19 -14 19 -2 0 -21 -13 -42 -29z"/>
</g>
</svg>
