<?xml version="1.0" standalone="no"?>
<!DOCTYPE svg PUBLIC "-//W3C//DTD SVG 20010904//EN"
 "http://www.w3.org/TR/2001/REC-SVG-20010904/DTD/svg10.dtd">
<svg version="1.0" xmlns="http://www.w3.org/2000/svg"
 width="300.000000pt" height="300.000000pt" viewBox="0 0 300.000000 300.000000"
 preserveAspectRatio="xMidYMid meet">
<metadata>
Created by potrace 1.14, written by Peter Selinger 2001-2017
</metadata>
<g transform="translate(0.000000,300.000000) scale(0.100000,-0.100000)"
fill="#000000" stroke="none">
<path d="M1339 2996 c-2 -2 -26 -7 -54 -10 -77 -11 -95 -17 -106 -37 -7 -15
-6 -21 5 -25 14 -5 31 -4 136 13 70 12 316 5 410 -10 244 -41 485 -148 670
-296 82 -65 81 -63 51 -123 -37 -76 -36 -175 2 -240 66 -113 190 -160 322
-123 17 5 25 -6 57 -82 80 -194 111 -352 111 -568 0 -136 -5 -178 -37 -341
-11 -57 -70 -213 -112 -296 -198 -395 -571 -684 -999 -773 -226 -47 -481 -37
-697 26 -95 28 -231 84 -298 123 -42 25 -61 31 -73 24 -31 -17 -18 -34 56 -76
279 -159 644 -217 992 -157 142 25 345 99 471 173 157 91 322 234 427 367 26
33 51 65 56 70 4 6 31 50 60 97 90 150 163 350 195 533 13 80 15 391 2 464
-24 137 -68 281 -118 389 l-29 64 27 26 c83 83 99 241 32 328 -57 75 -117 106
-209 112 -57 4 -75 0 -117 -21 -48 -24 -52 -25 -70 -9 -205 177 -420 287 -682
349 -86 20 -138 25 -291 29 -102 2 -188 2 -190 0z m1433 -420 c49 -23 83 -63
101 -117 46 -137 -49 -269 -195 -269 -180 0 -269 224 -138 349 60 56 157 72
232 37z"/>
<path d="M815 2837 c-88 -47 -187 -110 -204 -131 -9 -11 -8 -18 4 -30 14 -14
22 -11 86 29 38 25 105 64 149 86 88 46 93 50 84 73 -9 24 -31 19 -119 -27z"/>
<path d="M1379 2606 c-2 -2 -22 -6 -44 -9 -206 -24 -443 -141 -606 -298 -207
-200 -337 -494 -339 -767 0 -50 -3 -64 -17 -69 -61 -21 -122 -103 -123 -163 0
-105 66 -178 178 -194 19 -2 35 -6 35 -8 92 -190 160 -289 269 -397 138 -135
358 -252 541 -287 12 -2 35 -6 50 -10 38 -8 93 -8 106 1 20 12 -7 45 -37 45
-46 1 -197 37 -269 66 -188 74 -365 212 -481 374 -46 64 -122 204 -122 224 0
6 13 18 29 27 33 19 71 92 71 136 0 91 -50 164 -128 186 l-47 14 0 49 c0 43
13 145 28 224 31 159 155 372 296 510 320 312 835 385 1220 174 407 -223 626
-661 551 -1102 -6 -40 -12 -74 -11 -77 2 -29 -91 -241 -145 -332 -14 -24 -16
-35 -7 -44 30 -30 71 21 136 171 66 154 88 257 92 420 5 206 -24 343 -109 515
-187 383 -563 618 -993 623 -66 1 -122 0 -124 -2z m-882 -1203 c65 -30 88
-130 45 -189 -21 -30 -71 -54 -110 -54 -35 0 -92 36 -109 70 -31 61 -1 149 60
175 43 19 72 18 114 -2z"/>
<path d="M230 2300 c-27 -27 -124 -228 -155 -324 -55 -164 -67 -239 -71 -441
-3 -187 4 -267 36 -386 7 -24 14 -55 17 -68 6 -36 66 -188 101 -258 76 -149
253 -381 284 -371 28 10 17 40 -41 109 -168 200 -282 440 -327 689 -36 196
-23 448 33 640 39 135 97 269 166 381 11 18 3 49 -13 49 -5 0 -19 -9 -30 -20z"/>
<path d="M1459 2214 c-25 -42 -73 -74 -109 -74 -14 0 -48 12 -77 26 -28 15
-58 24 -66 21 -8 -3 -18 -22 -22 -43 -13 -74 -60 -126 -105 -119 -64 10 -110
13 -114 6 -3 -4 -2 -30 2 -57 15 -94 -19 -144 -108 -160 -59 -11 -62 -19 -29
-82 16 -31 29 -68 29 -82 0 -36 -32 -84 -74 -109 -46 -29 -46 -53 0 -82 42
-25 74 -73 74 -109 0 -14 -13 -52 -30 -85 -31 -62 -28 -74 15 -75 34 -1 103
-37 115 -61 12 -22 15 -74 6 -117 -9 -41 2 -51 47 -44 108 15 138 -1 165 -90
11 -34 25 -64 32 -66 6 -2 33 8 60 22 81 44 142 28 190 -49 24 -38 42 -44 62
-19 7 9 29 34 49 55 46 49 88 52 158 12 53 -29 81 -26 81 9 0 13 9 42 20 66
25 55 65 74 133 61 68 -12 80 -5 71 45 -19 109 9 152 110 171 21 4 40 14 43
23 4 8 -6 36 -20 63 -15 26 -27 59 -27 74 0 37 32 87 75 116 19 13 35 29 35
36 0 6 -19 28 -42 48 -76 64 -85 107 -41 184 14 27 24 55 20 63 -3 9 -23 19
-45 23 -90 15 -127 66 -110 152 11 60 3 74 -36 67 -48 -9 -103 -6 -125 6 -23
12 -51 59 -57 99 -10 60 -25 65 -89 26 -24 -15 -55 -25 -78 -25 -32 0 -45 7
-82 46 -25 25 -45 50 -45 55 0 24 -40 6 -61 -27z m66 -67 c49 -57 111 -75 177
-52 55 19 68 19 68 0 0 -9 12 -34 26 -56 30 -47 80 -72 136 -67 36 3 38 2 39
-27 3 -71 18 -112 51 -140 16 -14 33 -25 38 -25 5 0 20 -4 34 -10 24 -9 24
-10 9 -40 -19 -38 -23 -96 -11 -132 5 -15 25 -43 44 -64 l35 -36 -32 -30 c-59
-57 -71 -126 -34 -199 14 -26 14 -27 -30 -44 -63 -24 -93 -63 -101 -134 l-6
-58 -56 -6 c-31 -3 -67 -14 -81 -25 -24 -17 -53 -64 -65 -105 -5 -17 -8 -17
-37 -1 -71 36 -149 22 -201 -37 l-28 -31 -36 36 c-52 52 -127 67 -185 36 -30
-17 -47 -11 -54 17 -17 68 -79 113 -157 113 l-43 0 -1 55 c-2 81 -34 119 -127
149 -16 5 -16 8 -3 35 36 68 25 138 -30 195 l-36 37 26 25 c63 63 77 134 41
203 -15 31 -15 31 12 41 91 32 115 70 122 195 1 6 25 10 55 11 68 1 106 27
135 94 l22 50 32 -16 c52 -27 119 -23 168 11 23 16 43 35 46 42 7 18 15 16 38
-10z"/>
<path d="M1465 1922 c-130 -13 -254 -88 -321 -194 -47 -74 -67 -155 -61 -251
4 -76 10 -99 41 -162 174 -352 683 -295 786 88 21 77 8 194 -29 273 -42 90
-135 180 -217 212 -62 24 -149 39 -199 34z m130 -67 c124 -32 225 -137 259
-267 55 -214 -105 -436 -327 -452 -294 -20 -492 294 -343 547 84 145 250 214
411 172z"/>
<path d="M2224 731 c-21 -16 -48 -37 -59 -48 -38 -37 -141 -100 -220 -137
-123 -57 -130 -61 -130 -76 0 -30 54 -22 147 24 112 54 232 132 287 187 35 33
40 43 31 59 -6 11 -12 20 -14 20 -2 0 -21 -13 -42 -29z"/>
</g>
</svg>
