<?xml version="1.0" standalone="no"?>
<!DOCTYPE svg PUBLIC "-//W3C//DTD SVG 20010904//EN"
 "http://www.w3.org/TR/2001/REC-SVG-20010904/DTD/svg10.dtd">
<svg version="1.0" xmlns="http://www.w3.org/2000/svg"
 width="300.000000pt" height="300.000000pt" viewBox="0 0 300.000000 300.000000"
 preserveAspectRatio="xMidYMid meet">
<metadata>
Created by potrace 1.14, written by Peter Selinger 2001-2017
</metadata>
<g transform="translate(0.000000,300.000000) scale(0.100000,-0.100000)"
fill="#000000" stroke="none">
<path d="M1349 2996 c-2 -2 -28 -7 -58 -10 -79 -9 -178 -33 -257 -62 -38 -14
-73 -26 -79 -28 -69 -21 -196 -87 -293 -153 -323 -219 -542 -542 -633 -933
-28 -120 -35 -399 -15 -530 28 -173 70 -305 148 -459 202 -397 589 -696 1018
-786 184 -39 442 -41 615 -5 346 71 632 243 867 522 167 198 297 497 325 748
10 82 10 341 1 400 -27 173 -60 284 -130 438 l-19 44 25 25 c14 14 38 50 52
80 23 47 26 62 22 122 -10 139 -106 230 -250 239 -58 4 -75 1 -117 -22 l-49
-25 -68 55 c-198 163 -455 284 -674 319 -19 3 -58 9 -86 13 -50 8 -338 15
-345 8z"/>
</g>
</svg>
